<svg width="220" height="220" viewBox="0 0 210 210" xmlns="http://www.w3.org/2000/svg">
  <polygon points="192.77,141.36 141.36,192.77 68.64,192.77 17.23,141.36 17.23,68.64 68.64,17.23 141.36,17.23 192.77,68.64" fill="none" stroke="#ffffff" stroke-width="1.5"></polygon>

  <g stroke="#ffffff" stroke-width="1.5">
    <line x1="192.77" y1="141.36" x2="68.64" y2="192.77"></line>
    <line x1="141.36" y1="192.77" x2="17.23" y2="141.36"></line>
    <line x1="68.64" y1="192.77" x2="17.23" y2="68.64"></line>
    <line x1="17.23" y1="141.36" x2="68.64" y2="17.23"></line>
    <line x1="17.23" y1="68.64" x2="141.36" y2="17.23"></line>
    <line x1="68.64" y1="17.23" x2="192.77" y2="68.64"></line>
    <line x1="141.36" y1="17.23" x2="192.77" y2="141.36"></line>
    <line x1="192.77" y1="68.64" x2="141.36" y2="192.77"></line>

    <line x1="192.77" y1="141.36" x2="17.23" y2="141.36"></line>
    <line x1="141.36" y1="192.77" x2="17.23" y2="68.64"></line>
    <line x1="68.64" y1="192.77" x2="68.64" y2="17.23"></line>
    <line x1="17.23" y1="141.36" x2="141.36" y2="17.23"></line>
    <line x1="17.23" y1="68.64" x2="192.77" y2="68.64"></line>
    <line x1="68.64" y1="17.23" x2="192.77" y2="141.36"></line>
    <line x1="141.36" y1="17.23" x2="141.36" y2="192.77"></line>
    <line x1="192.77" y1="68.64" x2="68.64" y2="192.77"></line>

    <line x1="192.77" y1="141.36" x2="17.23" y2="68.64"></line>
    <line x1="141.36" y1="192.77" x2="68.64" y2="17.23"></line>
    <line x1="68.64" y1="192.77" x2="141.36" y2="17.23"></line>
    <line x1="17.23" y1="141.36" x2="192.77" y2="68.64"></line>
  </g>
</svg>